<?xml version="1.0" encoding="UTF-8"?>
<svg width="100pt" height="100pt" version="1.1" viewBox="0 0 100 100" xmlns="http://www.w3.org/2000/svg">
 <path d="m75.926 46h-42.344l11.32-11.32c1.5625-1.5625 1.5625-4.0938 0-5.6562s-4.0938-1.5625-5.6562 0l-18.148 18.148c-0.1875 0.1875-0.35156 0.39062-0.5 0.60938-0.058594 0.089844-0.10156 0.1875-0.15234 0.27734-0.074218 0.13672-0.15625 0.26562-0.21484 0.41016-0.046875 0.11719-0.074219 0.23828-0.10938 0.35938-0.039063 0.12891-0.089844 0.25391-0.11719 0.39062-0.039062 0.20312-0.054687 0.41016-0.0625 0.61719-0.003906 0.054687-0.015625 0.10547-0.015625 0.16016 0 0.0625 0.015625 0.12109 0.019531 0.17969 0.007813 0.19922 0.019532 0.39844 0.0625 0.59766 0.027344 0.14453 0.078126 0.27344 0.12109 0.41016 0.035156 0.11328 0.058594 0.22656 0.10547 0.33594 0.0625 0.15625 0.14844 0.30078 0.23438 0.44141 0.046875 0.082031 0.082031 0.16797 0.13281 0.24609 0.14844 0.22266 0.31641 0.42969 0.50781 0.61719l18.145 18.145c0.78125 0.78125 1.8047 1.1719 2.8281 1.1719 1.0234 0 2.0469-0.39062 2.8281-1.1719 1.5625-1.5625 1.5625-4.0938 0-5.6562l-11.328-11.312h42.34c2.2109 0 4-1.7891 4-4 0.003906-2.2109-1.7891-4-3.9961-4z" fill="#8fad60"/>
</svg>
