<?xml version="1.0" encoding="UTF-8"?>
<svg width="100pt" height="100pt" version="1.1" viewBox="0 0 100 100" xmlns="http://www.w3.org/2000/svg">
 <path d="m79.301 52.398c0.10156-0.10156 0.10156-0.19922 0.10156-0.30078 0.10156-0.10156 0.19922-0.30078 0.19922-0.39844 0-0.10156 0.10156-0.19922 0.10156-0.39844 0-0.10156 0.10156-0.30078 0.10156-0.39844 0-0.19922 0.10156-0.39844 0.10156-0.60156v-0.19922-0.19922c0-0.19922 0-0.39844-0.10156-0.60156 0-0.19922-0.10156-0.30078-0.10156-0.39844 0-0.10156-0.10156-0.19922-0.10156-0.30078-0.10156-0.19922-0.19922-0.30078-0.30078-0.5 0-0.10156-0.10156-0.10156-0.10156-0.19922-0.19922-0.19922-0.30078-0.39844-0.5-0.60156l-18.102-18.102c-1.6016-1.6016-4.1016-1.6016-5.6992 0-1.6016 1.6016-1.6016 4.1016 0 5.6992l11.301 11.301h-42.301c-2.1992 0-4 1.8008-4 4s1.8008 4 4 4h42.301l-11.301 11.301c-1.6016 1.6016-1.6016 4.1016 0 5.6992 0.80078 0.80078 1.8008 1.1992 2.8008 1.1992s2-0.39844 2.8008-1.1992l18.199-18.199c0.19922-0.19922 0.39844-0.39844 0.60156-0.60156z" fill="#c04e30"/>
</svg>
