<svg xmlns="http://www.w3.org/2000/svg" width="22.75" height="26" viewBox="0 0 22.75 26">
  <path id="calendar-alt-regular_1_" data-name="calendar-alt-regular (1)" d="M7.516,14.625H5.484a.611.611,0,0,1-.609-.609V11.984a.611.611,0,0,1,.609-.609H7.516a.611.611,0,0,1,.609.609v2.031A.611.611,0,0,1,7.516,14.625ZM13,14.016V11.984a.611.611,0,0,0-.609-.609H10.359a.611.611,0,0,0-.609.609v2.031a.611.611,0,0,0,.609.609h2.031A.611.611,0,0,0,13,14.016Zm4.875,0V11.984a.611.611,0,0,0-.609-.609H15.234a.611.611,0,0,0-.609.609v2.031a.611.611,0,0,0,.609.609h2.031A.611.611,0,0,0,17.875,14.016ZM13,18.891V16.859a.611.611,0,0,0-.609-.609H10.359a.611.611,0,0,0-.609.609v2.031a.611.611,0,0,0,.609.609h2.031A.611.611,0,0,0,13,18.891Zm-4.875,0V16.859a.611.611,0,0,0-.609-.609H5.484a.611.611,0,0,0-.609.609v2.031a.611.611,0,0,0,.609.609H7.516A.611.611,0,0,0,8.125,18.891Zm9.75,0V16.859a.611.611,0,0,0-.609-.609H15.234a.611.611,0,0,0-.609.609v2.031a.611.611,0,0,0,.609.609h2.031A.611.611,0,0,0,17.875,18.891Zm4.875-13.2V23.563A2.438,2.438,0,0,1,20.313,26H2.438A2.438,2.438,0,0,1,0,23.563V5.688A2.438,2.438,0,0,1,2.438,3.25H4.875V.609A.611.611,0,0,1,5.484,0H7.516a.611.611,0,0,1,.609.609V3.25h6.5V.609A.611.611,0,0,1,15.234,0h2.031a.611.611,0,0,1,.609.609V3.25h2.438A2.438,2.438,0,0,1,22.75,5.688Zm-2.437,17.57V8.125H2.438V23.258a.306.306,0,0,0,.3.3H20.008A.306.306,0,0,0,20.313,23.258Z" fill="#fff"/>
</svg>
