<svg xmlns="http://www.w3.org/2000/svg" width="25.375" height="35" viewBox="0 0 25.375 35">
  <g id="Group_32" data-name="Group 32" transform="translate(140 -1409)">
    <path id="Path_84" data-name="Path 84" d="M26.48,48.44a.439.439,0,1,1,0-.878h8.755a.439.439,0,0,1,0,.878Z" transform="translate(-153.535 1384.294)" fill="#007749"/>
    <path id="Path_85" data-name="Path 85" d="M26.48,28.414a.439.439,0,1,1,0-.879h8.755a.439.439,0,1,1,0,.879Z" transform="translate(-153.534 1394.697)" fill="#007749"/>
    <path id="Path_86" data-name="Path 86" d="M26.48,36.607a.439.439,0,1,1,0-.879h8.755a.439.439,0,1,1,0,.879Z" transform="translate(-153.534 1390.441)" fill="#007749"/>
    <path id="Path_87" data-name="Path 87" d="M9.023,32.438a.437.437,0,0,1-.311-.129L6.855,30.452a.439.439,0,0,1,.621-.621l1.547,1.547,3.713-3.713a.439.439,0,0,1,.621.621L9.334,32.31a.436.436,0,0,1-.31.129" transform="translate(-143.492 1394.695)" fill="#007749"/>
    <path id="Path_88" data-name="Path 88" d="M26.48,56.633a.439.439,0,1,1,0-.878h8.755a.439.439,0,1,1,0,.878Z" transform="translate(-153.535 1380.039)" fill="#007749"/>
    <path id="Path_89" data-name="Path 89" d="M9.024,52.637a.437.437,0,0,1-.311-.129L6.855,50.651a.439.439,0,0,1,.621-.62l1.547,1.546,3.713-3.713a.439.439,0,0,1,.621.621L9.334,52.508a.436.436,0,0,1-.31.129" transform="translate(-143.492 1384.202)" fill="#007749"/>
    <path id="Path_90" data-name="Path 90" d="M8.969,2.851a.874.874,0,0,0-.873.873V5.033a.875.875,0,0,0,.873.877h7.437a.874.874,0,0,0,.873-.873V3.724a.874.874,0,0,0-.873-.873h-2.1V2.411a1.53,1.53,0,1,0-3.06,0v.44ZM2.189,4.816A1.24,1.24,0,0,0,.878,5.966V32.973a1.24,1.24,0,0,0,1.311,1.149h21A1.24,1.24,0,0,0,24.5,32.973V5.965a1.24,1.24,0,0,0-1.311-1.149h-5.03v.217a1.754,1.754,0,0,1-1.751,1.755H8.969A1.753,1.753,0,0,1,7.218,5.037V4.819L7,4.816ZM2.189,35A2.115,2.115,0,0,1,0,32.973V5.965A2.115,2.115,0,0,1,2.189,3.938H7.218V3.722A1.754,1.754,0,0,1,8.969,1.973h1.436l.042-.163a2.408,2.408,0,0,1,4.664,0l.042.163h1.253a1.753,1.753,0,0,1,1.751,1.749v.216h5.029a2.115,2.115,0,0,1,2.188,2.028V32.973A2.115,2.115,0,0,1,23.187,35Z" transform="translate(-140 1408.999)" fill="#0046ad"/>
  </g>
</svg>
