<svg xmlns="http://www.w3.org/2000/svg" width="31.25" height="19.25" viewBox="0 0 31.25 19.25">
  <g id="Group_38" data-name="Group 38" transform="translate(-904.375 -160.375)">
    <path id="Path_37" data-name="Path 37" d="M429.739,542.83a.889.889,0,0,1,.889-.888h.015a.755.755,0,0,1,.516,1.273l-1.419,1.525h1.629m-11.984-6.827a3.519,3.519,0,1,0,0,4.959m8.819-2.479a3.519,3.519,0,1,1-3.519-3.519A3.519,3.519,0,0,1,428.2,540.392Z" transform="translate(497.378 -368.206)" fill="none" stroke="#fff" stroke-linecap="round" stroke-linejoin="round" stroke-width="1"/>
    <g id="layer1" transform="translate(542.453 -305.987)">
      <path id="path10000" d="M374.651,466.987a8.051,8.051,0,0,0-5.977,2.828,10.106,10.106,0,0,0-2.114,4.064,4.8,4.8,0,0,0-2.577,1.544,6.181,6.181,0,0,0,0,7.923,4.671,4.671,0,0,0,3.468,1.641h21.965a2.982,2.982,0,0,0,2.214-1.047,3.946,3.946,0,0,0,0-5.057,2.984,2.984,0,0,0-2.2-1.047,8.1,8.1,0,0,0-1.888-4.536,6.261,6.261,0,0,0-4.648-2.2,5.67,5.67,0,0,0-1.244.141,9.322,9.322,0,0,0-1.022-1.425,8.051,8.051,0,0,0-5.977-2.828Z" transform="translate(0 0)" fill="none" stroke="#fff" stroke-width="1.25"/>
    </g>
  </g>
</svg>
