<?xml version="1.0" encoding="UTF-8"?>
<svg xmlns="http://www.w3.org/2000/svg" xmlns:xlink="http://www.w3.org/1999/xlink" width="16px" height="16px" viewBox="0 0 16 16" version="1.1">
<g id="surface1">
<path style=" stroke:none;fill-rule:nonzero;fill:rgb(0%,23.921569%,64.705882%);fill-opacity:1;" d="M 8 0.800781 C 4.023438 0.800781 0.800781 4.023438 0.800781 8 C 0.800781 11.976562 4.023438 15.199219 8 15.199219 C 11.976562 15.199219 15.199219 11.976562 15.199219 8 C 15.199219 4.023438 11.976562 0.800781 8 0.800781 Z M 8 3.449219 C 8.707031 3.449219 9.28125 4.023438 9.28125 4.730469 C 9.28125 5.4375 8.707031 6.011719 8 6.011719 C 7.292969 6.011719 6.71875 5.4375 6.71875 4.730469 C 6.71875 4.023438 7.292969 3.449219 8 3.449219 Z M 9.921875 12.230469 C 9.921875 12.40625 9.777344 12.480469 9.601562 12.480469 L 6.398438 12.480469 C 6.222656 12.480469 6.078125 12.40625 6.078125 12.230469 L 6.078125 12.070312 C 6.078125 11.894531 6.222656 11.679688 6.398438 11.679688 L 6.71875 11.679688 L 6.71875 7.679688 L 6.398438 7.679688 C 6.222656 7.679688 6.078125 7.605469 6.078125 7.429688 L 6.078125 7.269531 C 6.078125 7.09375 6.222656 6.878906 6.398438 6.878906 L 8.960938 6.878906 C 9.136719 6.878906 9.28125 7.09375 9.28125 7.269531 L 9.28125 11.679688 L 9.601562 11.679688 C 9.777344 11.679688 9.921875 11.894531 9.921875 12.070312 Z M 9.921875 12.230469 "/>
</g>
</svg>
