<svg xmlns="http://www.w3.org/2000/svg" width="27.113" height="31.25" viewBox="0 0 27.113 31.25">
  <g id="Group_39" data-name="Group 39" transform="translate(-644.444 -154.375)">
    <g id="Group_12" data-name="Group 12" transform="translate(-995.091 -2419.675)">
      <path id="Path_41" data-name="Path 41" d="M418.16,401.351h1.127m23.608,0h1.128m-22.592-9.7.8.8m17.726,0,.8-.8m-9.66-2.851v-1.128m0,30a2.329,2.329,0,0,0,2.327-2.329h-4.654a2.328,2.328,0,0,0,2.325,2.329Zm-4.885-7.738h9.757m-.968,2.537h-7.806v1.238a1.633,1.633,0,0,0,1.633,1.635h4.538a1.635,1.635,0,0,0,1.635-1.635Zm4.8-11.543a8.7,8.7,0,1,0-15.381,5.581,8.654,8.654,0,0,1,2.072,5.538.423.423,0,0,0,.423.423h8.367a.423.423,0,0,0,.422-.423,8.358,8.358,0,0,1,2-5.45,8.669,8.669,0,0,0,2.1-5.669Z" transform="translate(1222 2187)" fill="none" stroke="#fff" stroke-linecap="round" stroke-linejoin="round" stroke-width="1.25"/>
    </g>
  </g>
</svg>
