<svg xmlns="http://www.w3.org/2000/svg" width="31.151" height="35.966" viewBox="0 0 31.151 35.966">
  <g id="Group_31" data-name="Group 31" transform="translate(-986 -844.228)">
    <path id="Path_73" data-name="Path 73" d="M.483,85.667H1.8m27.553,0h1.316M4.3,74.353l.931.931m20.688,0,.931-.931M15.576,71.027V69.711m0,35a2.716,2.716,0,0,0,2.715-2.716H12.86a2.716,2.716,0,0,0,2.716,2.716Zm-5.7-9.027H21.262m-1.131,2.96h-9.11v1.443a1.907,1.907,0,0,0,1.907,1.908h5.3a1.907,1.907,0,0,0,1.907-1.908Zm5.6-13.467A10.157,10.157,0,1,0,7.781,91.688,10.1,10.1,0,0,1,10.2,98.151a.494.494,0,0,0,.493.493h9.764a.494.494,0,0,0,.493-.493h0a9.75,9.75,0,0,1,2.332-6.358,10.116,10.116,0,0,0,2.45-6.615Z" transform="translate(986 775)" fill="none" stroke="#204ba0" stroke-linecap="round" stroke-linejoin="round" stroke-width="0.966"/>
    <path id="Path_74" data-name="Path 74" d="M20.56,90.234v5.987m0-1.571c6.772-5.888,0-11.141,0-11.141s-6.772,5.253,0,11.141Z" transform="translate(980.906 770.875)" fill="none" stroke="#00784a" stroke-linecap="round" stroke-linejoin="round" stroke-width="0.966"/>
  </g>
</svg>
