<svg xmlns="http://www.w3.org/2000/svg" width="31.397" height="35.966" viewBox="0 0 31.397 35.966">
  <g id="Group_28" data-name="Group 28" transform="translate(-987.54 -776.411)">
    <path id="Path_70" data-name="Path 70" d="M20.11,37.208v4.248H13.965V37.208M2.023,22.813h0a1.668,1.668,0,0,1,1.664-1.663h27.1a1.663,1.663,0,1,1,0,3.325H3.687A1.668,1.668,0,0,1,2.023,22.813Z" transform="translate(986 770.437)" fill="none" stroke="#00784a" stroke-linecap="round" stroke-linejoin="round" stroke-width="0.966"/>
    <path id="Path_71" data-name="Path 71" d="M12.62,33.355H26.552M12.62,30.94H26.552" transform="translate(983.486 768.094)" fill="none" stroke="#204ba0" stroke-linecap="round" stroke-linejoin="round" stroke-width="0.966"/>
    <path id="Path_72" data-name="Path 72" d="M13.44,16.573V3.558a1.664,1.664,0,0,0-3.329,0V16.573Zm12.8,0V3.558a1.664,1.664,0,0,0-3.329,0V16.573ZM6.956,20.01v4.453a8.208,8.208,0,0,0,8.184,8.183h6.253a8.208,8.208,0,0,0,8.185-8.183V20.01" transform="translate(984.824 775)" fill="none" stroke="#00784a" stroke-linecap="round" stroke-linejoin="round" stroke-width="0.966"/>
  </g>
</svg>
